<svg width="1440" height="1024" viewBox="0 0 1440 1024" fill="none" xmlns="http://www.w3.org/2000/svg">
<g filter="url(#filter0_f)">
<path fill-rule="evenodd" clip-rule="evenodd" d="M908.725 292.239C927.974 266.057 918.097 379.093 993.358 248.738C1068.62 118.384 924.655 372.817 1077.58 237.837C1230.51 102.856 1155.14 229.394 1181.9 253.56C1208.91 277.961 1209.14 320.151 1208.95 356.501C1208.78 389.663 1202.75 424.464 1180.87 449.363C1160.69 472.321 1125.86 470.558 1097.88 482.888C1070.01 495.163 1031.5 480.108 1017.5 521.336C1003.49 562.564 943.485 515.483 918.853 490.126C893.947 464.485 1047.09 397.101 889.68 389.751C732.27 382.401 888.618 319.586 908.725 292.239Z" fill="#9E3034"/>
</g>
<g filter="url(#filter1_f)">
<path fill-rule="evenodd" clip-rule="evenodd" d="M1233.72 827.239C1252.97 801.058 1243.1 914.094 1318.36 783.739C1393.62 653.384 1249.66 907.818 1402.58 772.837C1555.51 637.856 1480.14 764.394 1506.9 788.561C1533.91 812.962 1534.14 855.151 1533.95 891.502C1533.78 924.663 1527.75 959.464 1505.87 984.363C1485.69 1007.32 1450.86 1005.56 1422.88 1017.89C1395.01 1030.16 1356.5 1015.11 1342.5 1056.34C1328.49 1097.56 1268.49 1050.48 1243.85 1025.13C1218.95 999.485 1372.09 932.101 1214.68 924.751C1057.27 917.402 1213.62 854.586 1233.72 827.239Z" fill="#AA393D" fill-opacity="0.5"/>
</g>
<g filter="url(#filter2_f)">
<path fill-rule="evenodd" clip-rule="evenodd" d="M479.003 372.415C498.253 346.233 488.376 459.269 563.636 328.914C638.897 198.559 494.934 452.993 647.861 318.012C800.789 183.032 725.421 309.569 752.175 333.736C779.189 358.137 779.422 400.326 779.231 436.677C779.058 469.839 773.033 504.64 751.15 529.539C730.972 552.497 696.142 550.734 668.154 563.064C640.291 575.338 601.78 560.284 587.776 601.512C573.772 642.74 513.763 595.658 489.132 570.301C464.226 544.661 617.369 477.276 459.959 469.927C302.548 462.577 458.897 399.761 479.003 372.415Z" fill="#1C139B"/>
</g>
<g filter="url(#filter3_f)">
<path fill-rule="evenodd" clip-rule="evenodd" d="M1200.72 827.239C1219.97 801.058 1210.1 914.094 1285.36 783.739C1360.62 653.384 1216.66 907.818 1369.58 772.837C1522.51 637.856 1447.14 764.394 1473.9 788.561C1500.91 812.962 1501.14 855.151 1500.95 891.502C1500.78 924.663 1494.75 959.464 1472.87 984.363C1452.69 1007.32 1417.86 1005.56 1389.88 1017.89C1362.01 1030.16 1323.5 1015.11 1309.5 1056.34C1295.49 1097.56 1235.49 1050.48 1210.85 1025.13C1185.95 999.485 1339.09 932.101 1181.68 924.751C1024.27 917.402 1180.62 854.586 1200.72 827.239Z" fill="#9E3034"/>
</g>
<g filter="url(#filter4_f)">
<path fill-rule="evenodd" clip-rule="evenodd" d="M1147.72 38.2391C1166.97 12.0573 1157.1 125.093 1232.36 -5.26156C1307.62 -135.616 1163.66 118.817 1316.58 -16.1632C1469.51 -151.144 1394.14 -24.6063 1420.9 -0.439665C1447.91 23.9614 1448.14 66.1509 1447.95 102.501C1447.78 135.663 1441.75 170.464 1419.87 195.363C1399.69 218.321 1364.86 216.558 1336.88 228.888C1309.01 241.163 1270.5 226.108 1256.5 267.336C1242.49 308.564 1182.49 261.483 1157.85 236.126C1132.95 210.485 1286.09 143.101 1128.68 135.751C971.27 128.401 1127.62 65.5857 1147.72 38.2391Z" fill="#9E3034"/>
</g>
<g filter="url(#filter5_f)">
<path fill-rule="evenodd" clip-rule="evenodd" d="M1164.72 71.2391C1183.97 45.0573 1174.1 158.093 1249.36 27.7384C1324.62 -102.616 1180.66 151.817 1333.58 16.8368C1486.51 -118.144 1411.14 8.39374 1437.9 32.5603C1464.91 56.9614 1465.14 99.1509 1464.95 135.501C1464.78 168.663 1458.75 203.464 1436.87 228.363C1416.69 251.321 1381.86 249.558 1353.88 261.888C1326.01 274.163 1287.5 259.108 1273.5 300.336C1259.49 341.564 1199.48 294.483 1174.85 269.126C1149.95 243.485 1303.09 176.101 1145.68 168.751C988.27 161.401 1144.62 98.5857 1164.72 71.2391Z" fill="#9E3034"/>
</g>
<g filter="url(#filter6_f)">
<path fill-rule="evenodd" clip-rule="evenodd" d="M652.401 -90.8718C671.651 -117.054 661.774 -4.01757 737.035 -134.372C812.295 -264.727 668.332 -10.2934 821.259 -145.274C974.187 -280.255 898.82 -153.717 925.574 -129.551C952.588 -105.149 952.82 -62.96 952.63 -26.6096C952.456 6.55231 946.431 41.3531 924.548 66.2521C904.371 89.2104 869.54 87.4472 841.552 99.7772C813.689 112.052 775.178 96.9972 761.174 138.225C747.17 179.453 687.162 132.372 662.53 107.015C637.624 81.3742 790.767 13.9896 633.357 6.64008C475.947 -0.709475 632.295 -63.5252 652.401 -90.8718Z" fill="#9E3034"/>
</g>
<g filter="url(#filter7_f)">
<path fill-rule="evenodd" clip-rule="evenodd" d="M-92.2755 951.239C-73.0256 925.057 -82.9026 1038.09 -7.64217 907.739C67.6182 777.384 -76.3448 1031.82 76.5827 896.837C229.51 761.856 154.143 888.394 180.897 912.56C207.911 936.962 208.143 979.151 207.953 1015.5C207.779 1048.66 201.754 1083.46 179.871 1108.36C159.694 1131.32 124.863 1129.56 96.8752 1141.89C69.0124 1154.16 30.5015 1139.11 16.4976 1180.34C2.49367 1221.56 -57.5152 1174.48 -82.1466 1149.13C-107.053 1123.49 46.0904 1056.1 -111.32 1048.75C-268.73 1041.4 -112.382 978.586 -92.2755 951.239Z" fill="#9E3034"/>
</g>
<g filter="url(#filter8_f)">
<path fill-rule="evenodd" clip-rule="evenodd" d="M-23.2755 525.239C-4.02559 499.058 -13.9026 612.094 61.3578 481.739C136.618 351.384 -7.34482 605.818 145.583 470.837C298.51 335.856 223.143 462.394 249.897 486.561C276.911 510.962 277.143 553.151 276.953 589.502C276.779 622.663 270.754 657.464 248.871 682.363C228.694 705.321 193.863 703.558 165.875 715.888C138.012 728.163 99.5015 713.108 85.4976 754.336C71.4937 795.564 11.4848 748.483 -13.1466 723.126C-38.0529 697.485 115.09 630.101 -42.3199 622.751C-199.73 615.402 -43.3817 552.586 -23.2755 525.239Z" fill="#1C119B"/>
</g>
<g filter="url(#filter9_f)">
<path fill-rule="evenodd" clip-rule="evenodd" d="M1063.22 830.619C1082.47 804.437 1116.9 797.092 1147.86 787.118C1175.47 778.222 1203.06 775.474 1232.08 776.217C1268.11 777.138 1309.64 767.773 1336.4 791.94C1363.41 816.341 1363.64 858.531 1363.45 894.881C1363.28 928.043 1357.25 962.844 1335.37 987.743C1315.19 1010.7 1280.36 1008.94 1252.37 1021.27C1224.51 1033.54 1202.44 1058.48 1172 1059.72C1136.69 1061.14 1097.98 1053.86 1073.35 1028.51C1048.45 1002.86 1046 963.785 1044.18 928.131C1042.44 894.213 1043.12 857.965 1063.22 830.619Z" fill="#343CC6"/>
</g>
<g filter="url(#filter10_f)">
<path fill-rule="evenodd" clip-rule="evenodd" d="M974.345 196.485C993.595 170.303 1028.02 162.958 1058.98 152.984C1086.59 144.088 1114.19 141.34 1143.2 142.082C1179.23 143.004 1220.76 133.639 1247.52 157.806C1274.53 182.207 1274.76 224.396 1274.57 260.747C1274.4 293.909 1268.37 328.71 1246.49 353.609C1226.31 376.567 1191.48 374.804 1163.5 387.134C1135.63 399.408 1113.56 424.351 1083.12 425.582C1047.81 427.009 1009.11 419.728 984.474 394.371C959.568 368.731 957.126 329.65 955.301 293.997C953.565 260.079 954.239 223.831 974.345 196.485Z" fill="#343CC6"/>
</g>
<g filter="url(#filter11_f)">
<path fill-rule="evenodd" clip-rule="evenodd" d="M699.539 1077.03C718.789 1050.85 753.214 1043.5 784.173 1033.53C811.784 1024.63 839.379 1021.89 868.397 1022.63C904.425 1023.55 945.958 1014.18 972.712 1038.35C999.726 1062.75 999.958 1104.94 999.768 1141.29C999.594 1174.45 993.569 1209.25 971.686 1234.15C951.509 1257.11 916.678 1255.35 888.69 1267.68C860.827 1279.95 838.757 1304.9 808.312 1306.13C773.005 1307.55 734.299 1300.27 709.668 1274.92C684.762 1249.28 682.32 1210.2 680.495 1174.54C678.759 1140.62 679.433 1104.38 699.539 1077.03Z" fill="#343CC6"/>
</g>
<g filter="url(#filter12_f)">
<path fill-rule="evenodd" clip-rule="evenodd" d="M1074.36 217.694C1094.53 192.048 1135.72 188.608 1172.33 181.895C1204.98 175.907 1238.4 176.525 1274.02 181.077C1318.24 186.729 1367.87 182.039 1403.74 211.472C1439.97 241.192 1445.71 286.563 1450.18 325.604C1454.26 361.221 1451.39 397.842 1427.82 421.77C1406.1 443.832 1363.23 437.431 1330.57 447.06C1298.05 456.647 1274.26 480.597 1237.15 477.98C1194.11 474.946 1145.79 462.113 1112.36 431.674C1078.55 400.896 1070.51 358.58 1063.66 320.027C1057.15 283.351 1053.28 244.482 1074.36 217.694Z" fill="#A6DB36" fill-opacity="0.4"/>
</g>
<g filter="url(#filter13_f)">
<path fill-rule="evenodd" clip-rule="evenodd" d="M175.629 1066.6C124.882 1074.35 78.2235 1044.09 32.5011 1020.65C-8.27795 999.74 -42.1731 971.981 -73.7585 938.734C-112.974 897.455 -169.827 861.517 -172.719 804.632C-175.64 747.194 -128.775 699.805 -87.9601 659.411C-50.7252 622.56 -5.12385 590.415 47.1319 587.047C95.3144 583.942 132.252 624.823 177.288 642.317C222.123 659.733 274.637 656.526 310.019 689.163C351.053 727.012 386.157 778.386 385.347 834.23C384.529 890.698 343.606 937.083 305.82 978.95C269.875 1018.78 228.634 1058.52 175.629 1066.6Z" fill="#A6DB36" fill-opacity="0.4"/>
</g>
<g filter="url(#filter14_f)">
<path fill-rule="evenodd" clip-rule="evenodd" d="M-33.2755 914.239C-14.0256 888.058 -23.9026 1001.09 51.3578 870.739C126.618 740.384 -17.3448 994.818 135.583 859.837C288.51 724.856 213.143 851.394 239.897 875.561C266.911 899.962 267.143 942.151 266.953 978.502C266.779 1011.66 260.754 1046.46 238.871 1071.36C218.694 1094.32 183.863 1092.56 155.875 1104.89C128.012 1117.16 89.5015 1102.11 75.4976 1143.34C61.4937 1184.56 1.4848 1137.48 -23.1466 1112.13C-48.0529 1086.49 105.09 1019.1 -52.3199 1011.75C-209.73 1004.4 -53.3817 941.586 -33.2755 914.239Z" fill="#9E3034"/>
</g>
<defs>
<filter id="filter0_f" x="486" y="-228" width="1111.84" height="1129.85" filterUnits="userSpaceOnUse" color-interpolation-filters="sRGB">
<feFlood flood-opacity="0" result="BackgroundImageFix"/>
<feBlend mode="normal" in="SourceGraphic" in2="BackgroundImageFix" result="shape"/>
<feGaussianBlur stdDeviation="150" result="effect1_foregroundBlur"/>
</filter>
<filter id="filter1_f" x="811" y="307" width="1111.84" height="1129.85" filterUnits="userSpaceOnUse" color-interpolation-filters="sRGB">
<feFlood flood-opacity="0" result="BackgroundImageFix"/>
<feBlend mode="normal" in="SourceGraphic" in2="BackgroundImageFix" result="shape"/>
<feGaussianBlur stdDeviation="150" result="effect1_foregroundBlur"/>
</filter>
<filter id="filter2_f" x="56.2784" y="-147.825" width="1111.84" height="1129.85" filterUnits="userSpaceOnUse" color-interpolation-filters="sRGB">
<feFlood flood-opacity="0" result="BackgroundImageFix"/>
<feBlend mode="normal" in="SourceGraphic" in2="BackgroundImageFix" result="shape"/>
<feGaussianBlur stdDeviation="150" result="effect1_foregroundBlur"/>
</filter>
<filter id="filter3_f" x="778" y="307" width="1111.84" height="1129.85" filterUnits="userSpaceOnUse" color-interpolation-filters="sRGB">
<feFlood flood-opacity="0" result="BackgroundImageFix"/>
<feBlend mode="normal" in="SourceGraphic" in2="BackgroundImageFix" result="shape"/>
<feGaussianBlur stdDeviation="150" result="effect1_foregroundBlur"/>
</filter>
<filter id="filter4_f" x="725" y="-482" width="1111.84" height="1129.85" filterUnits="userSpaceOnUse" color-interpolation-filters="sRGB">
<feFlood flood-opacity="0" result="BackgroundImageFix"/>
<feBlend mode="normal" in="SourceGraphic" in2="BackgroundImageFix" result="shape"/>
<feGaussianBlur stdDeviation="150" result="effect1_foregroundBlur"/>
</filter>
<filter id="filter5_f" x="742" y="-449" width="1111.84" height="1129.85" filterUnits="userSpaceOnUse" color-interpolation-filters="sRGB">
<feFlood flood-opacity="0" result="BackgroundImageFix"/>
<feBlend mode="normal" in="SourceGraphic" in2="BackgroundImageFix" result="shape"/>
<feGaussianBlur stdDeviation="150" result="effect1_foregroundBlur"/>
</filter>
<filter id="filter6_f" x="229.677" y="-611.111" width="1111.84" height="1129.85" filterUnits="userSpaceOnUse" color-interpolation-filters="sRGB">
<feFlood flood-opacity="0" result="BackgroundImageFix"/>
<feBlend mode="normal" in="SourceGraphic" in2="BackgroundImageFix" result="shape"/>
<feGaussianBlur stdDeviation="150" result="effect1_foregroundBlur"/>
</filter>
<filter id="filter7_f" x="-515" y="431" width="1111.84" height="1129.85" filterUnits="userSpaceOnUse" color-interpolation-filters="sRGB">
<feFlood flood-opacity="0" result="BackgroundImageFix"/>
<feBlend mode="normal" in="SourceGraphic" in2="BackgroundImageFix" result="shape"/>
<feGaussianBlur stdDeviation="150" result="effect1_foregroundBlur"/>
</filter>
<filter id="filter8_f" x="-446" y="5" width="1111.84" height="1129.85" filterUnits="userSpaceOnUse" color-interpolation-filters="sRGB">
<feFlood flood-opacity="0" result="BackgroundImageFix"/>
<feBlend mode="normal" in="SourceGraphic" in2="BackgroundImageFix" result="shape"/>
<feGaussianBlur stdDeviation="150" result="effect1_foregroundBlur"/>
</filter>
<filter id="filter9_f" x="678" y="382" width="1044.57" height="1053.48" filterUnits="userSpaceOnUse" color-interpolation-filters="sRGB">
<feFlood flood-opacity="0" result="BackgroundImageFix"/>
<feBlend mode="normal" in="SourceGraphic" in2="BackgroundImageFix" result="shape"/>
<feGaussianBlur stdDeviation="150" result="effect1_foregroundBlur"/>
</filter>
<filter id="filter10_f" x="589.121" y="-252.134" width="1044.57" height="1053.48" filterUnits="userSpaceOnUse" color-interpolation-filters="sRGB">
<feFlood flood-opacity="0" result="BackgroundImageFix"/>
<feBlend mode="normal" in="SourceGraphic" in2="BackgroundImageFix" result="shape"/>
<feGaussianBlur stdDeviation="150" result="effect1_foregroundBlur"/>
</filter>
<filter id="filter11_f" x="314.315" y="628.411" width="1044.57" height="1053.48" filterUnits="userSpaceOnUse" color-interpolation-filters="sRGB">
<feFlood flood-opacity="0" result="BackgroundImageFix"/>
<feBlend mode="normal" in="SourceGraphic" in2="BackgroundImageFix" result="shape"/>
<feGaussianBlur stdDeviation="150" result="effect1_foregroundBlur"/>
</filter>
<filter id="filter12_f" x="689" y="-231" width="1126.49" height="1100.78" filterUnits="userSpaceOnUse" color-interpolation-filters="sRGB">
<feFlood flood-opacity="0" result="BackgroundImageFix"/>
<feBlend mode="normal" in="SourceGraphic" in2="BackgroundImageFix" result="shape"/>
<feGaussianBlur stdDeviation="150" result="effect1_foregroundBlur"/>
</filter>
<filter id="filter13_f" x="-515" y="215" width="1249.57" height="1222.42" filterUnits="userSpaceOnUse" color-interpolation-filters="sRGB">
<feFlood flood-opacity="0" result="BackgroundImageFix"/>
<feBlend mode="normal" in="SourceGraphic" in2="BackgroundImageFix" result="shape"/>
<feGaussianBlur stdDeviation="150" result="effect1_foregroundBlur"/>
</filter>
<filter id="filter14_f" x="-456" y="394" width="1111.84" height="1129.85" filterUnits="userSpaceOnUse" color-interpolation-filters="sRGB">
<feFlood flood-opacity="0" result="BackgroundImageFix"/>
<feBlend mode="normal" in="SourceGraphic" in2="BackgroundImageFix" result="shape"/>
<feGaussianBlur stdDeviation="150" result="effect1_foregroundBlur"/>
</filter>
</defs>
</svg>
