<svg width="20" height="41" viewBox="0 0 20 41" fill="none" xmlns="http://www.w3.org/2000/svg">
<path d="M17.9259 10.6596C17.1459 10.3128 16.2324 10.6639 15.8856 11.4439L13.8009 16.2707H13.3064V13.1842V12.3438V4.61185C13.3064 3.75828 12.6144 3.06621 11.7608 3.06621C10.9071 3.06621 10.2151 3.75818 10.2151 4.61185V2.44273C10.2151 1.58916 9.52315 0.897095 8.66948 0.897095C7.81591 0.897095 7.12384 1.58906 7.12384 2.44273V4.61185C7.12384 3.75828 6.43187 3.06621 5.5782 3.06621C4.72453 3.06621 4.03256 3.75818 4.03256 4.61185V8.26888C4.03256 7.41531 3.34059 6.72324 2.48692 6.72324C1.63335 6.72324 0.941284 7.41521 0.941284 8.26888V12.3438V12.4114V19.3584C0.941284 21.122 2.04867 22.6262 3.60578 23.2157V30.3807H12.6815V23.2156C13.8388 22.7774 14.7473 21.8337 15.1377 20.6541L15.1483 20.6556L16.6253 17.3881L18.71 12.6998C19.057 11.9199 18.7059 11.0064 17.9259 10.6596Z" fill="white"/>
<path d="M6.26172 4.61181C6.26172 4.19649 6.42638 3.82031 6.69286 3.54257C6.56921 3.41368 6.42342 3.30694 6.26172 3.22697V4.61181Z" fill="#FABBA7"/>
<path d="M19.6467 11.1945C19.4276 10.6243 18.9995 10.1736 18.4414 9.92546C17.3027 9.41931 15.9188 9.96984 15.4193 11.0931L14.262 13.7728V4.55506C14.2934 2.98946 12.6183 1.83887 11.1707 2.41421C10.9947 -0.661053 6.72102 -0.658384 6.59697 2.41421C5.14909 1.83927 3.47446 2.98936 3.50579 4.55516V6.07134C2.05889 5.4965 0.382491 6.64629 0.414514 8.21219V13.64C0.414514 14.5985 1.89709 14.5985 1.89709 13.64V8.21209C1.93841 7.14552 3.46547 7.1475 3.50579 8.21209V13.3675C3.50579 14.326 4.98837 14.326 4.98837 13.3675C4.98837 10.43 4.98837 7.49255 4.98837 4.55506C5.02801 3.49126 6.55615 3.4881 6.59697 4.55506V11.7638C6.59697 12.7222 8.07955 12.7222 8.07955 11.7638V2.38595C8.07955 1.94246 8.44032 1.58159 8.8839 1.58159C9.32749 1.58159 9.68825 1.94236 9.68825 2.38595V11.7638C9.68825 12.7222 11.1708 12.7222 11.1708 11.7638V4.55506C11.1708 4.11157 11.5317 3.75071 11.9753 3.75071C12.4189 3.75071 12.7796 4.11147 12.7796 4.55506V15.4906C10.5915 15.6862 8.87945 17.5258 8.87945 19.727C8.87945 20.6854 10.362 20.6854 10.362 19.727C10.362 17.6487 12.2437 16.8818 14.0154 16.9553C14.3111 16.9553 14.5787 16.7794 14.696 16.5079L16.7776 11.6883C17.0187 11.2592 17.3727 11.1231 17.8392 11.2802C18.2684 11.5214 18.4045 11.8754 18.2474 12.342C17.0782 14.9714 14.6637 20.3529 14.6637 20.3529C14.3219 21.324 13.563 22.1139 12.6337 22.4656C12.3455 22.5747 12.1549 22.8507 12.1549 23.1589V39.73C12.1549 40.1394 12.4868 40.4713 12.8962 40.4713C13.3056 40.4713 13.6375 40.1394 13.6375 39.73C13.6375 39.3206 13.6375 23.639 13.6375 23.639C14.7393 23.0727 15.6211 22.0718 16.051 20.8763C17.2444 18.2365 18.4249 15.5914 19.602 12.9443C19.85 12.3861 19.866 11.7648 19.6467 11.1945Z" fill="black"/>
<path d="M4.37291 22.0177C3.06557 21.5228 2.18729 20.2513 2.18729 18.8538V16.8987C2.18729 15.9402 0.704712 15.9402 0.704712 16.8987V18.8538C0.704712 20.688 1.75655 22.3712 3.3692 23.1924V37.7119C3.3692 38.1212 3.70101 38.4531 4.1105 38.4531C4.51998 38.4531 4.85179 38.1212 4.85179 37.7119V22.711C4.85179 22.4029 4.66113 22.1268 4.37291 22.0177Z" fill="black"/>
</svg>
