<svg width="50" height="27" viewBox="0 0 50 27" fill="none" xmlns="http://www.w3.org/2000/svg">
<path d="M39.6235 21.0854L40.4616 14.4102L39.2045 14.4102C40.3617 14.4102 41.2997 13.4722 41.2997 12.315C41.2997 11.1579 40.3617 10.2199 39.2045 10.2199L39.6235 10.2199L35.4334 10.2199L28.6157 10.2199C27.0769 10.2199 25.795 11.2955 25.4648 12.734L18.6725 12.734L18.6725 23.6286L25.4648 23.6286C25.7948 25.0671 27.0767 26.1427 28.6157 26.1427L34.5659 26.1427C37.3593 26.1427 39.6235 23.8784 39.6235 21.0854Z" fill="white"/>
<path d="M17.8346 12.7341L17.8346 23.6286C17.8346 24.0914 18.2094 24.4667 18.6727 24.4667L24.8548 24.4667C25.4744 25.9754 26.9376 26.9808 28.6153 26.9808L34.566 26.9808C37.7988 26.9808 40.4323 24.3656 40.4618 21.1399L41.2934 14.5145C41.299 14.4655 41.3016 14.4158 41.299 14.3672C41.8178 13.8377 42.1377 13.1131 42.1377 12.315C42.1377 11.0008 41.2687 9.88513 40.0753 9.51366C39.9443 9.43006 39.7898 9.38193 39.6236 9.38193L28.6161 9.38193C26.9383 9.38193 25.4751 10.3873 24.8547 11.8961L18.6725 11.8961C18.2094 11.8961 17.8346 12.2712 17.8346 12.7341ZM19.5106 22.7906L19.5106 13.5722L25.4653 13.5722C25.8557 13.5722 26.1944 13.3021 26.282 12.9217C26.5332 11.8247 27.4932 11.0581 28.6162 11.0581L39.2046 11.0581C39.8978 11.0581 40.4617 11.6219 40.4617 12.3152C40.4617 13.0084 39.8978 13.5722 39.2046 13.5722C38.7414 13.5722 38.3665 13.9475 38.3665 14.4103C38.3665 14.8731 38.7413 15.2484 39.2046 15.2484L39.5115 15.2484L38.792 20.9813C38.7881 21.016 38.7855 21.0509 38.7855 21.0856C38.7855 23.4124 36.8925 25.305 34.566 25.305L28.6155 25.305C27.4936 25.305 26.5333 24.5386 26.2822 23.4414C26.1946 23.0609 25.8558 22.7909 25.4654 22.7909L19.5106 22.7909L19.5106 22.7906Z" fill="#602F75"/>
<path d="M35.4334 14.4102C35.4334 14.873 35.8081 15.2482 36.2714 15.2482L40.4616 15.2482C40.9248 15.2482 41.2997 14.873 41.2997 14.4102C41.2997 13.9474 40.9249 13.5721 40.4616 13.5721L36.2714 13.5721C35.8081 13.5721 35.4334 13.9474 35.4334 14.4102Z" fill="#602F75"/>
<path d="M35.4334 18.6003C35.4334 19.0631 35.8082 19.4384 36.2715 19.4384L38.7856 19.4384C39.2487 19.4384 39.6237 19.0631 39.6237 18.6003C39.6237 18.1375 39.2489 17.7623 38.7856 17.7623L36.2715 17.7623C35.8082 17.7624 35.4334 18.1375 35.4334 18.6003Z" fill="#602F75"/>
<path d="M35.4334 21.9525C35.4334 22.4153 35.8082 22.7906 36.2715 22.7906L38.7856 22.7906C39.2487 22.7906 39.6237 22.4153 39.6237 21.9525C39.6237 21.4897 39.2489 21.1144 38.7856 21.1144L36.2715 21.1144C35.8082 21.1144 35.4334 21.4897 35.4334 21.9525Z" fill="#602F75"/>
<path d="M0.235498 11.896L0.235498 25.3047C0.235498 25.7675 0.610283 26.1428 1.07358 26.1428L18.6724 26.1428C19.1356 26.1428 19.5105 25.7675 19.5105 25.3047L19.5105 11.896C19.5105 11.4332 19.1357 11.0579 18.6724 11.0579L8.19696 11.0579C7.73379 11.0579 7.35888 11.4332 7.35888 11.896C7.35888 12.3588 7.73366 12.7341 8.19696 12.7341L17.8345 12.7341L17.8345 24.4666L1.91154 24.4666L1.91154 11.896C1.91154 11.4332 1.53675 11.0579 1.07346 11.0579C0.610164 11.0579 0.235498 11.4332 0.235498 11.896Z" fill="#602F75"/>
<path d="M16.1854 19.474L16.1854 22.8089L7.19555 22.8089L7.19555 19.474L16.1854 19.474Z" fill="white"/>
<path d="M45.4899 8.54467C45.4899 8.70426 45.5358 8.86581 45.6307 9.00871C45.8877 9.3938 46.4074 9.49766 46.7928 9.24109L49.307 7.56505C49.6924 7.30971 49.7955 6.78921 49.5393 6.40288C49.2823 6.01742 48.7626 5.91344 48.3772 6.1705L45.8631 7.84654C45.6209 8.00772 45.4899 8.27374 45.4899 8.54467Z" fill="#00E7FF"/>
<path d="M43.8138 6.02878C43.8138 6.33654 43.9834 6.6319 44.277 6.77921C44.6912 6.98619 45.1944 6.81862 45.4015 6.40443L47.9156 1.37619C48.1217 0.961384 47.955 0.459542 47.5408 0.25171C47.1266 0.0447369 46.6234 0.212303 46.4163 0.626494L43.9022 5.65474C43.8425 5.77516 43.8138 5.90295 43.8138 6.02878Z" fill="#00E7FF"/>
<path d="M40.4615 1.83948L40.4615 5.19167C40.4615 5.65485 40.8363 6.02975 41.2996 6.02975C41.7629 6.02975 42.1377 5.65497 42.1377 5.19167L42.1377 1.83948C42.1377 1.3763 41.7629 1.00139 41.2996 1.00139C40.8363 1.00139 40.4615 1.37618 40.4615 1.83948Z" fill="#00E7FF"/>
</svg>
