<svg width="47" height="20" viewBox="0 0 47 20" fill="none" xmlns="http://www.w3.org/2000/svg">
<path d="M3.18141 5.17283C2.07412 5.17283 1.17651 6.07043 1.17651 7.17772C1.17651 8.28501 2.07412 9.1825 3.18141 9.1825L11.6018 7.57865L12.0046 10.7865L12.0029 10.7865C10.8956 10.7865 9.99796 11.6841 9.99796 12.7914C9.99796 13.8986 10.8956 14.7963 12.0029 14.7963L12.48 14.7963C12.5569 15.2399 12.7096 15.6541 12.8982 16.0477C12.5944 16.3396 12.4038 16.7478 12.4038 17.2021C12.4038 18.0878 13.1219 18.8059 14.0076 18.8059L17.2154 18.8059L17.214 18.8033C17.224 18.8033 17.2335 18.8059 17.2433 18.8059L22.9373 18.8059C24.4098 18.8059 25.6364 17.7766 25.9524 16.4001L32.4524 16.4001L32.4524 5.97481L25.9527 5.97481C25.6369 4.59827 24.4101 3.56898 22.9375 3.56898L16.4135 3.56898L12.4038 3.56898L3.18141 5.17283Z" fill="white"/>
<path d="M33.2542 5.97472L33.2542 16.4C33.2542 16.8429 32.8956 17.202 32.4522 17.202L26.5364 17.202C25.9428 18.6457 24.5425 19.6078 22.937 19.6078L17.2436 19.6078C17.2396 19.6078 17.235 19.6078 17.2303 19.6078C17.2258 19.6078 17.2201 19.6078 17.2155 19.6078L14.0077 19.6078C12.6811 19.6078 11.6019 18.5286 11.6019 17.202C11.6019 16.7423 11.7304 16.3038 11.9699 15.9242C11.9268 15.813 11.8877 15.7029 11.8533 15.5943C10.3746 15.5159 9.19584 14.2887 9.19584 12.7913C9.19584 11.5546 9.99935 10.5021 11.1123 10.1295L10.9118 8.52633L3.33176 9.97041C3.2816 9.97981 3.23155 9.98439 3.18139 9.98439C1.63393 9.98451 0.374633 8.72521 0.374633 7.17764C0.374633 5.65473 1.59317 4.41152 3.10621 4.37205L12.2666 2.77878C12.3113 2.77091 12.3576 2.76691 12.4036 2.76691L22.937 2.76691C24.5425 2.76691 25.9426 3.72901 26.5364 5.17274L32.4522 5.17274C32.8956 5.17286 33.2542 5.53185 33.2542 5.97472ZM31.6504 15.598L31.6504 6.7767L25.9522 6.7767C25.5786 6.7767 25.2545 6.51826 25.1706 6.15422C24.9303 5.10449 24.0116 4.37088 22.937 4.37088L12.4727 4.37088L3.3186 5.96298C3.27384 5.97085 3.22756 5.97484 3.18151 5.97484C2.51814 5.97484 1.9786 6.51439 1.9786 7.17775C1.9786 7.81868 2.48302 8.34413 3.1149 8.37867L11.4515 6.7908C11.6692 6.74933 11.8948 6.79985 12.0734 6.93012C12.2528 7.0604 12.3702 7.25916 12.3977 7.4786L12.8002 10.6864C12.8261 10.9143 12.7579 11.1441 12.6059 11.3169C12.4532 11.4894 12.2346 11.5884 12.0045 11.5884C11.3403 11.5884 10.7999 12.1279 10.7999 12.7913C10.7999 13.4546 11.3395 13.9942 12.0028 13.9942L12.4798 13.9942C12.8697 13.9942 13.2033 14.2748 13.2699 14.6594C13.3263 14.9848 13.4413 15.3255 13.6208 15.7006C13.7711 16.0135 13.7022 16.3854 13.454 16.6254C13.2942 16.7796 13.2057 16.9843 13.2057 17.202C13.2057 17.644 13.5652 18.004 14.0077 18.004L17.1481 18.004C17.17 18.002 17.192 18.0012 17.2139 18.0012C17.2327 18.0012 17.2562 18.0023 17.2789 18.004L22.9371 18.004C24.0115 18.004 24.9302 17.2706 25.1707 16.2206C25.2545 15.8566 25.5787 15.5981 25.9523 15.5981L31.6504 15.5981L31.6504 15.598ZM3.18139 4.37088L3.18139 4.36301L3.18139 4.37088Z" fill="#602F75"/>
<path d="M32.4524 5.17275L32.4524 18.0039L46.0854 18.0039L46.0854 5.17275L32.4524 5.17275Z" fill="#00E7FF"/>
<path d="M46.8873 5.17282L46.8873 18.0038C46.8873 18.4467 46.5287 18.8058 46.0854 18.8058L32.4524 18.8058C32.0091 18.8058 31.6504 18.4467 31.6504 18.0038L31.6504 5.17271C31.6504 4.72984 32.009 4.37072 32.4524 4.37072L46.0854 4.37072C46.5286 4.37084 46.8873 4.72995 46.8873 5.17282ZM45.2834 17.202L45.2834 5.9748L33.2542 5.9748L33.2542 17.202L45.2834 17.202Z" fill="#602F75"/>
<path d="M34.8582 12.3902L34.8582 15.598L38.066 15.598L38.066 12.3902L34.8582 12.3902Z" fill="white"/>
<path d="M12.6549 11.4275L4.24551 4.60915C3.38538 3.91184 3.25346 2.64925 3.95077 1.78912C4.64809 0.928988 5.91067 0.797068 6.7708 1.49462L15.1802 8.31292" fill="white"/>
<path d="M15.9821 8.31323C15.9821 8.49061 15.9234 8.66905 15.8027 8.81801C15.5239 9.16185 15.0188 9.21471 14.675 8.93595L6.26566 2.11741C6.01579 1.91488 5.7025 1.82173 5.38309 1.85533C5.06427 1.88857 4.77705 2.04434 4.57488 2.29397C4.37119 2.54418 4.27498 2.85678 4.31245 3.17653C4.34534 3.49606 4.50111 3.78339 4.75109 3.98592L13.1602 10.8045C13.5032 11.0842 13.5566 11.5884 13.2777 11.9325C12.9988 12.2764 12.4938 12.3292 12.1499 12.0505L3.7406 5.23194C3.15794 4.75982 2.79448 4.08894 2.71706 3.34334C2.63483 2.59892 2.85556 1.86637 3.32874 1.28418C3.80027 0.701985 4.47045 0.338056 5.21687 0.26029C5.96246 0.182289 6.69302 0.39926 7.2758 0.871615L15.6851 7.69016C15.8803 7.84851 15.9821 8.07981 15.9821 8.31323Z" fill="#602F75"/>
</svg>
